name C:\Users\u0150099\Documents\master_thesis\3dpredictsim\Results\debug\Fal_s1_mtjc2_sc_cspx10_oy2_o1x25_ATx70_MTc2_MTPm_k1_d01_MTJm_nl_MG_exp5_table_d01_PF_Natali2010_x3_ls146_ig21.mot
datacolumns 128
datarows 4
range 1.03935642 1.07053711
endheader
time	pelvis_tilt	pelvis_list	pelvis_rotation	pelvis_tx	pelvis_ty	pelvis_tz	hip_flexion_l	hip_adduction_l	hip_rotation_l	hip_flexion_r	hip_adduction_r	hip_rotation_r	knee_angle_l	knee_angle_r	ankle_angle_l	ankle_angle_r	subtalar_angle_l	subtalar_angle_r	mtj_angle_l	mtj_angle_r	mtp_angle_l	mtp_angle_r	lumbar_extension	lumbar_bending	lumbar_rotation	arm_flex_l	arm_add_l	arm_rot_l	arm_flex_r	arm_add_r	arm_rot_r	elbow_flex_l	elbow_flex_r	pro_sup_l	pro_sup_r	glut_med1_l/activation	glut_med2_l/activation	glut_med3_l/activation	glut_min1_l/activation	glut_min2_l/activation	glut_min3_l/activation	semimem_l/activation	semiten_l/activation	bifemlh_l/activation	bifemsh_l/activation	sar_l/activation	add_long_l/activation	add_brev_l/activation	add_mag1_l/activation	add_mag2_l/activation	add_mag3_l/activation	tfl_l/activation	pect_l/activation	grac_l/activation	glut_max1_l/activation	glut_max2_l/activation	glut_max3_l/activation	iliacus_l/activation	psoas_l/activation	quad_fem_l/activation	gem_l/activation	peri_l/activation	rect_fem_l/activation	vas_med_l/activation	vas_int_l/activation	vas_lat_l/activation	med_gas_l/activation	lat_gas_l/activation	soleus_l/activation	tib_post_l/activation	flex_dig_l/activation	flex_hal_l/activation	tib_ant_l/activation	per_brev_l/activation	per_long_l/activation	per_tert_l/activation	ext_dig_l/activation	ext_hal_l/activation	ercspn_l/activation	intobl_l/activation	extobl_l/activation	glut_med1_r/activation	glut_med2_r/activation	glut_med3_r/activation	glut_min1_r/activation	glut_min2_r/activation	glut_min3_r/activation	semimem_r/activation	semiten_r/activation	bifemlh_r/activation	bifemsh_r/activation	sar_r/activation	add_long_r/activation	add_brev_r/activation	add_mag1_r/activation	add_mag2_r/activation	add_mag3_r/activation	tfl_r/activation	pect_r/activation	grac_r/activation	glut_max1_r/activation	glut_max2_r/activation	glut_max3_r/activation	iliacus_r/activation	psoas_r/activation	quad_fem_r/activation	gem_r/activation	peri_r/activation	rect_fem_r/activation	vas_med_r/activation	vas_int_r/activation	vas_lat_r/activation	med_gas_r/activation	lat_gas_r/activation	soleus_r/activation	tib_post_r/activation	flex_dig_r/activation	flex_hal_r/activation	tib_ant_r/activation	per_brev_r/activation	per_long_r/activation	per_tert_r/activation	ext_dig_r/activation	ext_hal_r/activation	ercspn_r/activation	intobl_r/activation	extobl_r/activation	
          1.03935642	         -2.93014245	         -1.38939405	          2.76969390	          1.38234404	          0.90695474	         -0.00326128	        -16.21408247	          1.91847102	         10.10071327	         28.20298664	          3.52156846	         -0.54235579	        -12.71186788	        -12.83342309	          5.89390199	          8.85479793	          0.06821007	         -2.81839649	         -2.37841250	          2.46737406	         19.85672790	         -6.79366504	         -3.35306477	          0.68865228	         -1.65323753	          4.12350242	        -13.64212254	         19.25923452	         -4.56524609	        -13.46117907	          7.29897213	         32.06497730	         22.82098367	         86.51662706	         86.51662706	          0.36700853	          0.05755920	          0.05000006	          0.50334638	          0.17081393	          0.06546530	          0.05000180	          0.05000027	          0.05000018	          0.05840600	          0.09473133	          0.05000089	          0.05000041	          0.05000056	          0.05000150	          0.05000166	          0.45067002	          0.05000120	          0.05000039	          0.05000135	          0.05000086	          0.05000080	          0.43555269	          0.80425402	          0.05000007	          0.05000034	          0.05000007	          0.38747862	          0.15455691	          0.16482106	          0.13619937	          0.36520305	          0.42992303	          0.29417082	          0.35361870	          0.24620972	          0.43622300	          0.05000000	          0.06882288	          0.19671043	          0.05000007	          0.05000003	          0.08074496	          0.05000000	          0.05000004	          0.05000002	          0.06882280	          0.05000083	          0.05866105	          0.05000025	          0.05000033	          0.05000175	          0.30481012	          0.11566086	          0.31445250	          0.11114163	          0.05000119	          0.10620227	          0.13932495	          0.10360573	          0.12413411	          0.17209162	          0.05000108	          0.05003190	          0.20116659	          0.05866125	          0.10088504	          0.12617111	          0.05000022	          0.05000016	          0.11311830	          0.05000048	          0.05000026	          0.05000004	          0.05000011	          0.05000011	          0.05000009	          0.06619318	          0.05866048	          0.05032791	          0.05000066	          0.05000115	          0.05000103	          0.27225494	          0.15756771	          0.12506751	          0.19204972	          0.51247905	          0.20181781	          0.05964987	          0.08529928	          0.11114195	
          1.04974999	         -2.92809703	         -1.46501383	          3.04089016	          1.39885048	          0.90617612	         -0.00306475	        -16.40890604	          1.60598231	          9.90740633	         27.91418534	          3.85375422	         -0.46117882	        -13.94960228	        -13.22623834	          4.98055136	          8.42343105	          0.92882606	         -3.00844851	         -3.50075635	          2.53960523	         22.70468581	         -7.00555930	         -3.16870610	          0.86027074	         -1.74595351	          3.74842203	        -13.60508212	         19.16124757	         -5.25737053	        -13.44987333	          7.06302839	         33.23704022	         22.27561436	         86.51662706	         86.51662706	          0.31282015	          0.05000004	          0.05000001	          0.42902785	          0.14559342	          0.05579946	          0.05000086	          0.05000009	          0.05000007	          0.05000024	          0.08074456	          0.10774789	          0.05000062	          0.05000028	          0.05000069	          0.05000027	          0.41011220	          0.08074809	          0.05000020	          0.05000038	          0.05000022	          0.05000020	          0.37124365	          0.71400143	          0.05000002	          0.05000012	          0.05000007	          0.35555176	          0.13379380	          0.14111507	          0.12190689	          0.31128107	          0.36644521	          0.25073669	          0.30140720	          0.20985714	          0.37181522	          0.05000000	          0.05866126	          0.16766627	          0.05000005	          0.05000002	          0.06882304	          0.05000005	          0.05000002	          0.06274301	          0.05866126	          0.05000157	          0.05000009	          0.05866132	          0.05866128	          0.05000145	          0.25980523	          0.09858364	          0.27063380	          0.09473168	          0.05000077	          0.13479631	          0.24657576	          0.08830868	          0.10580624	          0.18933288	          0.05000013	          0.08077019	          0.17146479	          0.05000022	          0.15391544	          0.21420966	          0.06913036	          0.05291262	          0.18569881	          0.15983837	          0.08180183	          0.05000009	          0.05000023	          0.05000022	          0.05000019	          0.05641984	          0.05000011	          0.05000000	          0.07055457	          0.08088550	          0.08074644	          0.26748685	          0.13430300	          0.10660140	          0.16369413	          0.52238052	          0.20535813	          0.05084263	          0.07270490	          0.09473192	
          1.06014355	         -2.92279526	         -1.55383009	          3.29679831	          1.41561303	          0.90538084	         -0.00284521	        -16.50297040	          1.27394985	          9.67982890	         27.63427203	          4.16128685	         -0.35685603	        -15.32766923	        -14.25954904	          3.88580575	          7.72870483	          1.83748967	         -3.16034796	         -4.67765001	          2.51694407	         25.69810922	         -7.08331050	         -2.97133075	          1.04819957	         -1.83074820	          3.30242656	        -13.58368210	         19.06183435	         -5.96396901	        -13.45928199	          7.00302917	         34.44859770	         21.73781944	         86.51662706	         86.51662706	          0.26663248	          0.05866109	          0.05866127	          0.36568222	          0.12409669	          0.05866083	          0.05000511	          0.05000060	          0.05000123	          0.05000019	          0.06882282	          0.19745679	          0.20344312	          0.05866145	          0.05861996	          0.09105060	          0.34955964	          0.06882595	          0.05010938	          0.05678963	          0.05865759	          0.05866072	          0.31642978	          0.61568931	          0.05866128	          0.05866127	          0.05001862	          0.30305484	          0.15239410	          0.15298213	          0.14764304	          0.26532062	          0.31233982	          0.21371558	          0.25690464	          0.17887189	          0.31691701	          0.07958428	          0.05000001	          0.14291046	          0.05000002	          0.05000002	          0.05866138	          0.06274574	          0.05866152	          0.05636224	          0.05000001	          0.05000005	          0.12329563	          0.05000005	          0.05000006	          0.05000011	          0.22144517	          0.08402786	          0.23067490	          0.08074464	          0.06882302	          0.11489384	          0.21016915	          0.41616248	          0.29330502	          0.22923309	          0.05000158	          0.06884506	          0.14614838	          0.10478659	          0.17107855	          0.21264428	          0.06882296	          0.06882296	          0.42567677	          0.13623839	          0.06972388	          0.06121595	          0.05866102	          0.05105774	          0.05866105	          0.06882298	          0.06882309	          0.06882296	          0.06013724	          0.06894289	          0.06882438	          0.32235280	          0.19672803	          0.13731521	          0.30266936	          0.44525139	          0.17503715	          0.05000000	          0.06197007	          0.08074482	
          1.07053711	         -2.91470106	         -1.66745688	          3.53357733	          1.43253003	          0.90459411	         -0.00264379	        -16.47636468	          0.92545100	          9.42827848	         27.32038413	          4.39422719	         -0.20182679	        -16.86741680	        -15.57048946	          2.61295399	          7.00665550	          2.74761626	         -3.34559637	         -5.87449462	          2.55060173	         28.66354970	         -7.05023250	         -2.76640602	          1.26682685	         -1.90485219	          2.79856829	        -13.56941981	         18.96053219	         -6.65825081	        -13.49550391	          7.12149482	         35.69551101	         21.18186989	         86.51662706	         86.51662706	          0.22726447	          0.05000004	          0.05000001	          0.31168959	          0.10577394	          0.05000010	          0.05000108	          0.05000022	          0.05000010	          0.05000023	          0.05866136	          0.25274525	          0.19663234	          0.05000044	          0.05000086	          0.07760742	          0.40462880	          0.05866422	          0.05000026	          0.05000035	          0.05000022	          0.05000023	          0.26970915	          0.64493787	          0.05000004	          0.05000014	          0.05000003	          0.25830900	          0.12989327	          0.13039447	          0.12584368	          0.22614621	          0.26622306	          0.18216062	          0.21897285	          0.15246159	          0.27012446	          0.21005143	          0.08930517	          0.12180989	          0.39966623	          0.20755915	          0.05000008	          0.11066346	          0.05000019	          0.05000005	          0.39972691	          0.41348491	          0.45111042	          0.43883404	          0.40916652	          0.34148388	          0.18874894	          0.10519978	          0.19661592	          0.06882278	          0.05866141	          0.09792989	          0.30152976	          0.35471652	          0.27884301	          0.29603925	          0.05000020	          0.05868051	          0.14646004	          0.32499671	          0.30883577	          0.34140704	          0.05866132	          0.05866131	          0.36282591	          0.11612294	          0.10356178	          0.05217746	          0.05000031	          0.07493357	          0.05000034	          0.05866131	          0.05866142	          0.05866130	          0.05866134	          0.05876359	          0.05866258	          0.32269006	          0.16768129	          0.11704073	          0.35416744	          0.58515118	          0.43280643	          0.07527918	          0.08074492	          0.06882290	
